<svg xmlns="http://www.w3.org/2000/svg" viewBox="0 0 1080 1080">
  <path fill="#ae1a20" d="M199,1077.27c-25.14,0-49.31-3.03-72.53-9.07-23.26-6.04-43.98-15.61-62.18-28.72-18.22-13.08-32.97-29.96-44.27-50.63-11.31-20.64-16.96-45.07-16.96-73.3V164.44c0-28.19,5.65-52.63,16.96-73.3,11.3-20.64,26.05-37.52,44.27-50.63,18.19-13.08,38.92-22.67,62.18-28.71,23.22-6.05,47.39-9.07,72.53-9.07h37.68c23.84,0,47.72,3.02,71.59,9.07,23.84,6.05,44.89,15.63,63.11,28.71,18.19,13.11,32.97,29.99,44.28,50.63,11.3,20.66,16.96,45.1,16.96,73.3v272.04h-186.52v-250.88c0-21.16-1.88-36.01-5.65-44.58-3.77-8.55-10.69-12.84-20.72-12.84h-3.77c-10.07,0-16.96,4.3-20.73,12.84-3.77,8.57-5.65,23.95-5.65,46.1v705.77c0,21.16,1.89,36.27,5.65,45.34,3.77,9.06,10.66,13.6,20.73,13.6h3.77c10.04,0,16.96-4.54,20.72-13.6,3.77-9.07,5.65-24.18,5.65-45.34v-252.39h186.52v275.05c0,28.22-5.65,52.66-16.96,73.3-11.3,20.67-26.08,37.55-44.28,50.63-18.22,13.11-39.27,22.68-63.11,28.72-23.87,6.04-47.75,9.07-71.59,9.07h-37.68ZM1076.93,11.8v1056.4h-154.49V481.82h-3.76l-75.36,586.38h-133.78l-71.58-586.38h-3.78v586.38h-156.37V11.8h239.27l56.52,474.55h3.76L837.67,11.8h239.26Z"/>
</svg>